<svg id="Layer_1" data-name="Layer 1" xmlns="http://www.w3.org/2000/svg" viewBox="0 0 420.8 420.8"><defs><style>.cls-1{fill:#231f20;}</style></defs><title>ABXY_LOGO_FINAL_</title><path class="cls-1" d="M513.26,422.86v70.42H506.8V422.86l-51.1-75.75,5.35-3.61,49,72.6,49-72.6,5.35,3.61ZM300.63,139.93,353,273.78l5.6-2.19L300.89,124.08,237.72,271.5l5.53,2.37Zm61.23,349.28L239.26,343.5l-4.84,4.07L357,493.28Zm-6.48-141.73-5.05-3.79L240.9,489.3l5.05,3.79ZM499.31,124.08c12.75,0,20.44,2,26.31,5.47,13.76,7.29,17.61,21.05,17.61,32.18,0,4.05,0,23.48-20.64,32.59v.4c27.73,7.89,30,32.18,30,39.27-.2,18.42-9.11,30.16-23.68,36.43-6.48,2.23-14.38,3.44-23.89,3.44H467.53V124.08ZM473.6,192.7h27.12c8.9,0,16-1,21.25-3.85,12.56-7.08,15.18-17.4,15.18-27.93,0-13.56-7.49-23.48-15.18-26.92-4.25-2.43-9.71-4.25-22.67-4.45H473.6Zm0,75.7h31.58c7.89,0,15.38-1,21.45-3.24C538,260.3,546.26,250.58,546.47,234c0-15-7.9-26.72-20.25-32.18-8.09-3.44-13.36-3.65-25.5-3.65H473.6ZM607.4,96.1H186.6V516.9H607.4ZM192.55,102H601.45V511H192.55Z" transform="translate(-186.6 -96.1)"/></svg>